<mxfile host="app.diagrams.net" modified="2023-09-11T17:21:54.076Z" agent="Mozilla/5.0 (Macintosh; Intel Mac OS X 10_15_7) AppleWebKit/537.36 (KHTML, like Gecko) Chrome/116.0.0.0 Safari/537.36" etag="nGIdzMq7jrES4H-HfVnN" version="21.7.4" type="github">
  <diagram id="C5RBs43oDa-KdzZeNtuy" name="Page-1">
    <mxGraphModel dx="1040" dy="749" grid="1" gridSize="10" guides="1" tooltips="1" connect="1" arrows="1" fold="1" page="1" pageScale="1" pageWidth="827" pageHeight="1169" math="0" shadow="0">
      <root>
        <mxCell id="WIyWlLk6GJQsqaUBKTNV-0" />
        <mxCell id="WIyWlLk6GJQsqaUBKTNV-1" parent="WIyWlLk6GJQsqaUBKTNV-0" />
        <mxCell id="I5qmTtuInJa2sIl9nDvP-1" style="edgeStyle=orthogonalEdgeStyle;rounded=0;orthogonalLoop=1;jettySize=auto;html=1;exitX=0.5;exitY=1;exitDx=0;exitDy=0;entryX=0.5;entryY=0;entryDx=0;entryDy=0;" edge="1" parent="WIyWlLk6GJQsqaUBKTNV-1" source="WIyWlLk6GJQsqaUBKTNV-3" target="I5qmTtuInJa2sIl9nDvP-0">
          <mxGeometry relative="1" as="geometry" />
        </mxCell>
        <mxCell id="WIyWlLk6GJQsqaUBKTNV-3" value="START" style="rounded=1;whiteSpace=wrap;html=1;fontSize=12;glass=0;strokeWidth=1;shadow=0;" parent="WIyWlLk6GJQsqaUBKTNV-1" vertex="1">
          <mxGeometry x="354" y="40" width="120" height="40" as="geometry" />
        </mxCell>
        <mxCell id="I5qmTtuInJa2sIl9nDvP-4" style="edgeStyle=orthogonalEdgeStyle;rounded=0;orthogonalLoop=1;jettySize=auto;html=1;exitX=0.5;exitY=1;exitDx=0;exitDy=0;entryX=0.5;entryY=0;entryDx=0;entryDy=0;" edge="1" parent="WIyWlLk6GJQsqaUBKTNV-1" source="I5qmTtuInJa2sIl9nDvP-0" target="I5qmTtuInJa2sIl9nDvP-3">
          <mxGeometry relative="1" as="geometry" />
        </mxCell>
        <mxCell id="I5qmTtuInJa2sIl9nDvP-0" value="Generate a random word" style="rounded=1;whiteSpace=wrap;html=1;fontSize=12;glass=0;strokeWidth=1;shadow=0;" vertex="1" parent="WIyWlLk6GJQsqaUBKTNV-1">
          <mxGeometry x="354" y="120" width="120" height="40" as="geometry" />
        </mxCell>
        <mxCell id="I5qmTtuInJa2sIl9nDvP-7" style="edgeStyle=orthogonalEdgeStyle;rounded=0;orthogonalLoop=1;jettySize=auto;html=1;exitX=0.5;exitY=1;exitDx=0;exitDy=0;entryX=0.5;entryY=0;entryDx=0;entryDy=0;" edge="1" parent="WIyWlLk6GJQsqaUBKTNV-1" source="I5qmTtuInJa2sIl9nDvP-3" target="I5qmTtuInJa2sIl9nDvP-6">
          <mxGeometry relative="1" as="geometry" />
        </mxCell>
        <mxCell id="I5qmTtuInJa2sIl9nDvP-3" value="Create blanks = amount of letters in random word" style="rounded=1;whiteSpace=wrap;html=1;fontSize=12;glass=0;strokeWidth=1;shadow=0;" vertex="1" parent="WIyWlLk6GJQsqaUBKTNV-1">
          <mxGeometry x="336" y="200" width="156" height="50" as="geometry" />
        </mxCell>
        <mxCell id="I5qmTtuInJa2sIl9nDvP-9" style="edgeStyle=orthogonalEdgeStyle;rounded=0;orthogonalLoop=1;jettySize=auto;html=1;exitX=0.5;exitY=1;exitDx=0;exitDy=0;entryX=0.5;entryY=0;entryDx=0;entryDy=0;" edge="1" parent="WIyWlLk6GJQsqaUBKTNV-1" source="I5qmTtuInJa2sIl9nDvP-6" target="I5qmTtuInJa2sIl9nDvP-8">
          <mxGeometry relative="1" as="geometry" />
        </mxCell>
        <mxCell id="I5qmTtuInJa2sIl9nDvP-6" value="Have user guess a letter" style="rounded=1;whiteSpace=wrap;html=1;fontSize=12;glass=0;strokeWidth=1;shadow=0;" vertex="1" parent="WIyWlLk6GJQsqaUBKTNV-1">
          <mxGeometry x="354" y="290" width="120" height="40" as="geometry" />
        </mxCell>
        <mxCell id="I5qmTtuInJa2sIl9nDvP-15" style="edgeStyle=orthogonalEdgeStyle;rounded=0;orthogonalLoop=1;jettySize=auto;html=1;exitX=0;exitY=0.5;exitDx=0;exitDy=0;entryX=0.5;entryY=0;entryDx=0;entryDy=0;" edge="1" parent="WIyWlLk6GJQsqaUBKTNV-1" source="I5qmTtuInJa2sIl9nDvP-8" target="I5qmTtuInJa2sIl9nDvP-11">
          <mxGeometry relative="1" as="geometry" />
        </mxCell>
        <mxCell id="I5qmTtuInJa2sIl9nDvP-17" value="YES" style="edgeLabel;html=1;align=center;verticalAlign=middle;resizable=0;points=[];" vertex="1" connectable="0" parent="I5qmTtuInJa2sIl9nDvP-15">
          <mxGeometry x="-0.1467" y="-1" relative="1" as="geometry">
            <mxPoint as="offset" />
          </mxGeometry>
        </mxCell>
        <mxCell id="I5qmTtuInJa2sIl9nDvP-16" style="edgeStyle=orthogonalEdgeStyle;rounded=0;orthogonalLoop=1;jettySize=auto;html=1;exitX=1;exitY=0.5;exitDx=0;exitDy=0;entryX=0.5;entryY=0;entryDx=0;entryDy=0;" edge="1" parent="WIyWlLk6GJQsqaUBKTNV-1" source="I5qmTtuInJa2sIl9nDvP-8" target="I5qmTtuInJa2sIl9nDvP-12">
          <mxGeometry relative="1" as="geometry" />
        </mxCell>
        <mxCell id="I5qmTtuInJa2sIl9nDvP-18" value="NO" style="edgeLabel;html=1;align=center;verticalAlign=middle;resizable=0;points=[];" vertex="1" connectable="0" parent="I5qmTtuInJa2sIl9nDvP-16">
          <mxGeometry x="-0.3162" y="-1" relative="1" as="geometry">
            <mxPoint as="offset" />
          </mxGeometry>
        </mxCell>
        <mxCell id="I5qmTtuInJa2sIl9nDvP-8" value="Is the guessed letter in the word?" style="rhombus;whiteSpace=wrap;html=1;" vertex="1" parent="WIyWlLk6GJQsqaUBKTNV-1">
          <mxGeometry x="330" y="360" width="168" height="100" as="geometry" />
        </mxCell>
        <mxCell id="I5qmTtuInJa2sIl9nDvP-23" style="edgeStyle=orthogonalEdgeStyle;rounded=0;orthogonalLoop=1;jettySize=auto;html=1;exitX=0.5;exitY=1;exitDx=0;exitDy=0;entryX=0.5;entryY=0;entryDx=0;entryDy=0;" edge="1" parent="WIyWlLk6GJQsqaUBKTNV-1" source="I5qmTtuInJa2sIl9nDvP-11" target="I5qmTtuInJa2sIl9nDvP-29">
          <mxGeometry relative="1" as="geometry">
            <mxPoint x="250" y="550" as="targetPoint" />
          </mxGeometry>
        </mxCell>
        <mxCell id="I5qmTtuInJa2sIl9nDvP-11" value="Replace blank with guessed letter" style="rounded=1;whiteSpace=wrap;html=1;fontSize=12;glass=0;strokeWidth=1;shadow=0;" vertex="1" parent="WIyWlLk6GJQsqaUBKTNV-1">
          <mxGeometry x="190" y="460" width="120" height="40" as="geometry" />
        </mxCell>
        <mxCell id="I5qmTtuInJa2sIl9nDvP-24" style="edgeStyle=orthogonalEdgeStyle;rounded=0;orthogonalLoop=1;jettySize=auto;html=1;exitX=0.5;exitY=1;exitDx=0;exitDy=0;entryX=0.5;entryY=0;entryDx=0;entryDy=0;" edge="1" parent="WIyWlLk6GJQsqaUBKTNV-1" source="I5qmTtuInJa2sIl9nDvP-12" target="I5qmTtuInJa2sIl9nDvP-30">
          <mxGeometry relative="1" as="geometry">
            <mxPoint x="570" y="545" as="targetPoint" />
          </mxGeometry>
        </mxCell>
        <mxCell id="I5qmTtuInJa2sIl9nDvP-12" value="Lose a life" style="rounded=1;whiteSpace=wrap;html=1;fontSize=12;glass=0;strokeWidth=1;shadow=0;" vertex="1" parent="WIyWlLk6GJQsqaUBKTNV-1">
          <mxGeometry x="510" y="460" width="120" height="40" as="geometry" />
        </mxCell>
        <mxCell id="I5qmTtuInJa2sIl9nDvP-25" style="edgeStyle=orthogonalEdgeStyle;rounded=0;orthogonalLoop=1;jettySize=auto;html=1;exitX=0;exitY=0.5;exitDx=0;exitDy=0;entryX=0;entryY=0.5;entryDx=0;entryDy=0;" edge="1" parent="WIyWlLk6GJQsqaUBKTNV-1" source="I5qmTtuInJa2sIl9nDvP-29" target="I5qmTtuInJa2sIl9nDvP-6">
          <mxGeometry relative="1" as="geometry">
            <mxPoint x="190" y="570" as="sourcePoint" />
          </mxGeometry>
        </mxCell>
        <mxCell id="I5qmTtuInJa2sIl9nDvP-28" value="NO" style="edgeLabel;html=1;align=center;verticalAlign=middle;resizable=0;points=[];" vertex="1" connectable="0" parent="I5qmTtuInJa2sIl9nDvP-25">
          <mxGeometry x="-0.7339" y="3" relative="1" as="geometry">
            <mxPoint as="offset" />
          </mxGeometry>
        </mxCell>
        <mxCell id="I5qmTtuInJa2sIl9nDvP-26" style="edgeStyle=orthogonalEdgeStyle;rounded=0;orthogonalLoop=1;jettySize=auto;html=1;exitX=1;exitY=0.5;exitDx=0;exitDy=0;entryX=1;entryY=0.5;entryDx=0;entryDy=0;" edge="1" parent="WIyWlLk6GJQsqaUBKTNV-1" source="I5qmTtuInJa2sIl9nDvP-30" target="I5qmTtuInJa2sIl9nDvP-6">
          <mxGeometry relative="1" as="geometry">
            <mxPoint x="630" y="565" as="sourcePoint" />
          </mxGeometry>
        </mxCell>
        <mxCell id="I5qmTtuInJa2sIl9nDvP-27" value="NO" style="edgeLabel;html=1;align=center;verticalAlign=middle;resizable=0;points=[];" vertex="1" connectable="0" parent="I5qmTtuInJa2sIl9nDvP-26">
          <mxGeometry x="-0.7605" y="-1" relative="1" as="geometry">
            <mxPoint y="-1" as="offset" />
          </mxGeometry>
        </mxCell>
        <mxCell id="I5qmTtuInJa2sIl9nDvP-35" style="edgeStyle=orthogonalEdgeStyle;rounded=0;orthogonalLoop=1;jettySize=auto;html=1;exitX=0.5;exitY=1;exitDx=0;exitDy=0;entryX=0.5;entryY=0;entryDx=0;entryDy=0;" edge="1" parent="WIyWlLk6GJQsqaUBKTNV-1" source="I5qmTtuInJa2sIl9nDvP-29" target="I5qmTtuInJa2sIl9nDvP-34">
          <mxGeometry relative="1" as="geometry" />
        </mxCell>
        <mxCell id="I5qmTtuInJa2sIl9nDvP-29" value="Has user guessed all letters in word?" style="rhombus;whiteSpace=wrap;html=1;" vertex="1" parent="WIyWlLk6GJQsqaUBKTNV-1">
          <mxGeometry x="175" y="545" width="150" height="80" as="geometry" />
        </mxCell>
        <mxCell id="I5qmTtuInJa2sIl9nDvP-36" style="edgeStyle=orthogonalEdgeStyle;rounded=0;orthogonalLoop=1;jettySize=auto;html=1;exitX=0.5;exitY=1;exitDx=0;exitDy=0;" edge="1" parent="WIyWlLk6GJQsqaUBKTNV-1" source="I5qmTtuInJa2sIl9nDvP-30" target="I5qmTtuInJa2sIl9nDvP-34">
          <mxGeometry relative="1" as="geometry" />
        </mxCell>
        <mxCell id="I5qmTtuInJa2sIl9nDvP-37" value="YES" style="edgeLabel;html=1;align=center;verticalAlign=middle;resizable=0;points=[];" vertex="1" connectable="0" parent="I5qmTtuInJa2sIl9nDvP-36">
          <mxGeometry x="0.7062" y="-1" relative="1" as="geometry">
            <mxPoint x="1" y="-1" as="offset" />
          </mxGeometry>
        </mxCell>
        <mxCell id="I5qmTtuInJa2sIl9nDvP-30" value="Has user run out of lives?" style="rhombus;whiteSpace=wrap;html=1;" vertex="1" parent="WIyWlLk6GJQsqaUBKTNV-1">
          <mxGeometry x="495" y="545" width="150" height="80" as="geometry" />
        </mxCell>
        <mxCell id="I5qmTtuInJa2sIl9nDvP-34" value="GAME OVER" style="rounded=1;whiteSpace=wrap;html=1;" vertex="1" parent="WIyWlLk6GJQsqaUBKTNV-1">
          <mxGeometry x="354" y="690" width="120" height="60" as="geometry" />
        </mxCell>
      </root>
    </mxGraphModel>
  </diagram>
</mxfile>
